<svg width="26" height="26" viewBox="0 0 26 26" fill="none" xmlns="http://www.w3.org/2000/svg">
<g clip-path="url(#clip0_19_5)">
<path d="M22.0423 4.65553C20.3474 3.88033 18.5472 3.31534 16.6684 3C16.4319 3.40732 16.169 3.95915 15.9851 4.39276C13.9866 4.10368 12.0026 4.10368 10.0317 4.39276C9.84776 3.95915 9.57182 3.40732 9.34845 3C7.45644 3.31534 5.65636 3.88033 3.97324 4.65553C0.57019 9.6747 -0.349561 14.5756 0.110309 19.4108C2.37025 21.0532 4.55138 22.0518 6.69439 22.7088C7.21995 21.9993 7.69297 21.2372 8.10029 20.4357C7.32507 20.1467 6.58928 19.7919 5.87976 19.3714C6.0637 19.2401 6.24766 19.0956 6.41847 18.951C10.7018 20.9088 15.3413 20.9088 19.5721 18.951C19.756 19.0956 19.9269 19.2401 20.1108 19.3714C19.4012 19.7919 18.6655 20.1467 17.8903 20.4357C18.2975 21.2372 18.7707 21.9993 19.2962 22.7088C21.4379 22.0518 23.6321 21.0532 25.8803 19.4108C26.4452 13.8136 24.9855 8.95209 22.0423 4.65553ZM8.69154 16.4282C7.40388 16.4282 6.35275 15.2589 6.35275 13.8267C6.35275 12.3946 7.3776 11.2251 8.69154 11.2251C9.9923 11.2251 11.0565 12.3946 11.0303 13.8267C11.0303 15.2589 9.9923 16.4282 8.69154 16.4282ZM17.3253 16.4282C16.0377 16.4282 14.9852 15.2589 14.9852 13.8267C14.9852 12.3946 16.0113 11.2251 17.3253 11.2251C18.6261 11.2251 19.6903 12.3946 19.6641 13.8267C19.6641 15.2589 18.6392 16.4282 17.3253 16.4282Z" fill="#FFEC79"/>
</g>
<defs>
<clipPath id="clip0_19_5">
<rect width="26" height="26" fill="white"/>
</clipPath>
</defs>
</svg>
